<svg version="1.1" xmlns="http://www.w3.org/2000/svg" xmlns:xlink="http://www.w3.org/1999/xlink" x="0px" y="0px" viewBox="0 0 224.7 125.3">
<g>
	<path fill="#eadfd6" d="M219.6,91.3c-1.5-0.5-2.7-1.3-3.6-2.1c-0.9-0.9-2.6-3-5-6.4c-2.4-3.4-5.3-7.8-8.8-13.1c-3.5-5.3-5.3-8.2-5.6-8.7l13.1-13.4
		l2.5-2.4c2.9-2.9,6.4-4.7,10.6-5.5v-4.8h-26.4v4.8c4.6,0,6.9,0.9,6.9,2.8c0,0.9-0.9,2.6-2.8,5.1L193,56c-1.1-1.6-2.7-4.2-4.9-7.9
		c-2.2-3.7-3.2-6-3.2-7c0-0.5,0.7-0.9,2.1-1.2c1.4-0.3,2.9-0.5,4.4-0.5v-4.2L139.5,35v-7c0-7.4,0.3-12.7,0.8-15.9
		c0.6-3.2,1.4-5.3,2.6-6.5c2.6,6.9,4.6,11.4,5.9,13.5c1.3,2.1,2.8,3.5,4.4,4.4c1.6,0.9,3.7,1.3,6.1,1.3c3.9,0,6.9-1,9.2-3.1
		c2.2-2.1,3.4-5,3.4-8.8c0-4.1-1.7-7.2-5.2-9.5c-3.5-2.3-8.4-3.4-14.7-3.4c-7.8,0-14.6,1.4-20.3,4.1c-5.7,2.7-10.1,6.8-13.4,12.1
		c-3.2,5.3-5,11.5-5.5,18.6H90v4.8c2.9,0.2,5.2,0.7,7,1.6c1.8,0.9,2.8,1.8,2.8,2.9c0,1.6-0.7,4.2-2,7.8c-1.4,3.6-2.8,7-4.2,10.4
		c-1.4,3.3-3,6.8-4.7,10.5c-2.3-3.8-4.3-7.3-6.1-10.6c-1.8-3.3-3.6-6.6-5.3-10.1c-1.7-3.4-2.9-5.7-3.3-6.7c-0.5-1-0.7-1.9-0.7-2.5
		c0-0.8,0.9-1.6,2.6-2.3c1.7-0.7,3.6-1.1,5.5-1.2v-4.6h-43V1.1L37.6,0L0,1.8v4.8C1.4,6.6,2.9,7,4.3,7.6c1.5,0.7,2.6,1.3,3.4,1.9
		c2.5,1.3,3.7,3.9,3.7,7.6v68.1c0,2.8-0.8,4.6-2.3,5.6c-1.5,1-3.8,1.5-7,1.5v5h45.7v-5c-3.3-0.4-5.7-1.2-7.2-2.3
		c-1.5-1.2-2.3-3-2.3-5.5V40.1c3.1,1,5.5,3.2,7.5,6.4c7.9,14.1,15.7,28.6,23.5,43.6l5.7,10.8c-1.5,3.5-3.7,6.7-6.6,9.6
		c-5.6-6.5-10.7-9.7-15.4-9.7c-3.9,0-7,1.1-9.2,3.2c-2.3,2.1-3.4,4.9-3.4,8.5c0,3.7,1.3,6.8,4,9.3c2.6,2.5,5.9,3.7,9.8,3.7
		c6,0,11.3-2.2,16.2-6.6c4.8-4.4,9.2-10.9,13.2-19.4c10-21.6,16.5-35.5,19.5-41.7c3-6.2,5-10.2,6.1-11.9c0.9-1.5,1.9-2.6,2.9-3.5h1
		v43c0,2.6-0.7,4.5-2.2,5.5c-1.5,1-4,1.6-7.5,1.6v5h68.1v-5c-2.1,0-3.7-0.2-4.9-0.7c-1.2-0.5-1.8-1.1-1.8-1.9c0-1.8,3.8-7,11.3-15.5
		c0.6,0.9,1.7,2.5,3.1,4.9c1.5,2.4,2.9,4.8,4.2,7.1c1.3,2.3,2,3.8,2,4.3c0,0.5-0.6,0.8-1.9,1.2c-1.3,0.3-2.8,0.5-4.5,0.5h-1.1v5
		h46.9v-5C222.8,92.2,221.1,91.8,219.6,91.3z M156.7,85.7c-1.8,1.6-3.3,2.8-4.4,3.5c-1.1,0.7-2.4,1.4-3.8,1.9
		c-0.4,0.2-0.8,0.3-1.3,0.4c-1.1-0.2-2.2-0.5-3-0.7c-1.3-0.6-2.4-1.3-3.2-2.1c-0.8-0.8-1.2-2.1-1.2-3.9V42.2h13.5
		c1.1,0.7,2,1.4,2.7,2.3c0.6,0.8,1.3,1.8,2.2,3.1c0.9,1.2,1.8,2.6,2.9,4.1c1,1.5,2.1,3.1,3.2,4.7c1.1,1.7,2.2,3.3,3.2,4.8
		c1,1.6,2,3.1,3,4.5c0.9,1.4,1.7,2.6,2.4,3.6L156.7,85.7z"/>
</g>
</svg>
